<svg width="751" height="751" viewBox="0 0 751 751" fill="none" xmlns="http://www.w3.org/2000/svg">
<rect x="512" width="170.667" height="68.2667" fill="white"/>
<rect x="682.667" y="238.934" width="170.667" height="68.2667" transform="rotate(-90 682.667 238.934)" fill="white"/>
<path d="M682.667 0H697.934C727.205 0 750.934 23.7289 750.934 53V68.2667H682.667V0Z" fill="white"/>
<rect y="238.934" width="170.667" height="68.2667" transform="rotate(-90 0 238.934)" fill="white"/>
<rect x="238.934" y="68.2666" width="170.667" height="68.2667" transform="rotate(180 238.934 68.2666)" fill="white"/>
<path d="M0 68.2666L-6.67328e-07 52.9999C-1.94681e-06 23.7288 23.7289 -6.97018e-05 53 -7.09813e-05L68.2667 -7.16486e-05L68.2667 68.2666L0 68.2666Z" fill="white"/>
<rect x="238.934" y="750.934" width="170.667" height="68.2667" transform="rotate(180 238.934 750.934)" fill="white"/>
<rect x="68.2666" y="512" width="170.667" height="68.2667" transform="rotate(90 68.2666 512)" fill="white"/>
<path d="M68.2666 750.934L52.9999 750.934C23.7288 750.934 -7.0739e-05 727.205 -7.3298e-05 697.934L-7.46326e-05 682.667L68.2666 682.667L68.2666 750.934Z" fill="white"/>
<rect x="750.934" y="512" width="170.667" height="68.2667" transform="rotate(90 750.934 512)" fill="white"/>
<rect x="512" y="682.667" width="170.667" height="68.2667" fill="white"/>
<path d="M750.934 682.667L750.934 697.934C750.934 727.205 727.205 750.934 697.934 750.934L682.667 750.934L682.667 682.667L750.934 682.667Z" fill="white"/>
<path d="M552.96 170.667L415.384 580.267H331.552L194.56 170.667H289.783L373.322 444.019L457.153 170.667H552.96Z" fill="white"/>
</svg>
